<svg width="45" height="45" viewBox="0 0 45 45" fill="none" xmlns="http://www.w3.org/2000/svg">
<rect width="45" height="45" rx="22.5" fill="#E2E0E0"/>
<path d="M30 30.9375V29.0625C30 28.0679 29.6049 27.1141 28.9017 26.4109C28.1984 25.7076 27.2446 25.3125 26.25 25.3125H18.75C17.7554 25.3125 16.8016 25.7076 16.0983 26.4109C15.3951 27.1141 15 28.0679 15 29.0625V30.9375M26.25 17.8125C26.25 19.8836 24.5711 21.5625 22.5 21.5625C20.4289 21.5625 18.75 19.8836 18.75 17.8125C18.75 15.7414 20.4289 14.0625 22.5 14.0625C24.5711 14.0625 26.25 15.7414 26.25 17.8125Z" stroke="#0D0D0D" stroke-width="2.66667" stroke-linecap="round" stroke-linejoin="round"/>
</svg>
